<mxfile host="Electron" agent="Mozilla/5.0 (Macintosh; Intel Mac OS X 10_15_7) AppleWebKit/537.36 (KHTML, like Gecko) draw.io/25.0.2 Chrome/128.0.6613.186 Electron/32.2.5 Safari/537.36" version="25.0.2">
  <diagram name="Page-1" id="tEylE2ome6hVK28fSYJY">
    <mxGraphModel dx="1363" dy="2132" grid="1" gridSize="10" guides="1" tooltips="1" connect="1" arrows="1" fold="1" page="1" pageScale="1" pageWidth="827" pageHeight="1169" math="0" shadow="0">
      <root>
        <mxCell id="0" />
        <mxCell id="1" parent="0" />
        <mxCell id="3lNl4ujsSI5lW8CYDao6-15" style="edgeStyle=orthogonalEdgeStyle;rounded=0;orthogonalLoop=1;jettySize=auto;html=1;entryX=0.5;entryY=0;entryDx=0;entryDy=0;strokeColor=#432D57;strokeWidth=2;" edge="1" parent="1" source="3lNl4ujsSI5lW8CYDao6-1" target="3lNl4ujsSI5lW8CYDao6-14">
          <mxGeometry relative="1" as="geometry" />
        </mxCell>
        <mxCell id="3lNl4ujsSI5lW8CYDao6-1" value="&lt;font style=&quot;font-size: 20px;&quot;&gt;Veneuze trombose*&lt;/font&gt;" style="rounded=1;whiteSpace=wrap;html=1;fillColor=#FFFFFF;strokeColor=#432D57;strokeWidth=2;align=center;verticalAlign=middle;fontFamily=Helvetica;fontSize=12;fontColor=#432D57;" vertex="1" parent="1">
          <mxGeometry x="344.5" y="-70" width="146" height="70" as="geometry" />
        </mxCell>
        <mxCell id="3lNl4ujsSI5lW8CYDao6-9" style="edgeStyle=orthogonalEdgeStyle;rounded=0;orthogonalLoop=1;jettySize=auto;html=1;entryX=0.5;entryY=0;entryDx=0;entryDy=0;strokeColor=#432D57;strokeWidth=2;" edge="1" parent="1" source="3lNl4ujsSI5lW8CYDao6-2" target="3lNl4ujsSI5lW8CYDao6-3">
          <mxGeometry relative="1" as="geometry" />
        </mxCell>
        <mxCell id="3lNl4ujsSI5lW8CYDao6-10" style="edgeStyle=orthogonalEdgeStyle;rounded=0;orthogonalLoop=1;jettySize=auto;html=1;entryX=0.5;entryY=0;entryDx=0;entryDy=0;strokeColor=#432D57;strokeWidth=2;" edge="1" parent="1" source="3lNl4ujsSI5lW8CYDao6-2" target="3lNl4ujsSI5lW8CYDao6-4">
          <mxGeometry relative="1" as="geometry" />
        </mxCell>
        <mxCell id="3lNl4ujsSI5lW8CYDao6-2" value="&lt;font style=&quot;font-size: 20px;&quot;&gt;risicofactoren?&lt;/font&gt;" style="rounded=1;whiteSpace=wrap;html=1;fillColor=#FFFFFF;strokeColor=#432D57;strokeWidth=2;align=center;verticalAlign=middle;fontFamily=Helvetica;fontSize=12;fontColor=#432D57;" vertex="1" parent="1">
          <mxGeometry x="320" y="140" width="195" height="40" as="geometry" />
        </mxCell>
        <mxCell id="3lNl4ujsSI5lW8CYDao6-32" style="edgeStyle=orthogonalEdgeStyle;rounded=0;orthogonalLoop=1;jettySize=auto;html=1;entryX=0.5;entryY=0;entryDx=0;entryDy=0;strokeColor=#432D57;strokeWidth=2;" edge="1" parent="1" target="3lNl4ujsSI5lW8CYDao6-29">
          <mxGeometry relative="1" as="geometry">
            <mxPoint x="232.00000000000023" y="350" as="sourcePoint" />
          </mxGeometry>
        </mxCell>
        <mxCell id="3lNl4ujsSI5lW8CYDao6-3" value="&lt;font style=&quot;font-size: 20px;&quot;&gt;Unprovoked VTE&lt;/font&gt;" style="rounded=1;whiteSpace=wrap;html=1;fillColor=#FFFFFF;strokeColor=#432D57;strokeWidth=2;fontColor=#432D57;" vertex="1" parent="1">
          <mxGeometry x="144" y="330" width="176" height="40" as="geometry" />
        </mxCell>
        <mxCell id="3lNl4ujsSI5lW8CYDao6-12" style="edgeStyle=orthogonalEdgeStyle;rounded=0;orthogonalLoop=1;jettySize=auto;html=1;entryX=0.5;entryY=0;entryDx=0;entryDy=0;strokeColor=#432D57;strokeWidth=2;" edge="1" parent="1" target="3lNl4ujsSI5lW8CYDao6-6">
          <mxGeometry relative="1" as="geometry">
            <mxPoint x="603" y="350" as="sourcePoint" />
            <Array as="points">
              <mxPoint x="603" y="530" />
              <mxPoint x="740" y="530" />
            </Array>
          </mxGeometry>
        </mxCell>
        <mxCell id="3lNl4ujsSI5lW8CYDao6-4" value="&lt;font style=&quot;font-size: 20px;&quot;&gt;Provoked VTE&lt;/font&gt;" style="rounded=1;whiteSpace=wrap;html=1;fillColor=#FFFFFF;strokeColor=#432D57;strokeWidth=2;fontColor=#432D57;" vertex="1" parent="1">
          <mxGeometry x="515" y="330" width="176" height="40" as="geometry" />
        </mxCell>
        <mxCell id="3lNl4ujsSI5lW8CYDao6-28" style="edgeStyle=orthogonalEdgeStyle;rounded=0;orthogonalLoop=1;jettySize=auto;html=1;entryX=0.5;entryY=0;entryDx=0;entryDy=0;strokeColor=#432D57;strokeWidth=2;" edge="1" parent="1" source="3lNl4ujsSI5lW8CYDao6-6" target="3lNl4ujsSI5lW8CYDao6-25">
          <mxGeometry relative="1" as="geometry" />
        </mxCell>
        <mxCell id="3lNl4ujsSI5lW8CYDao6-6" value="&lt;font style=&quot;font-size: 20px;&quot;&gt;Laag risico**&lt;/font&gt;" style="rounded=1;whiteSpace=wrap;html=1;fillColor=#FFFFFF;strokeColor=#432D57;strokeWidth=2;fontColor=#432D57;" vertex="1" parent="1">
          <mxGeometry x="670" y="590" width="140" height="40" as="geometry" />
        </mxCell>
        <mxCell id="3lNl4ujsSI5lW8CYDao6-27" style="edgeStyle=orthogonalEdgeStyle;rounded=0;orthogonalLoop=1;jettySize=auto;html=1;entryX=0.5;entryY=0;entryDx=0;entryDy=0;strokeColor=#432D57;strokeWidth=2;" edge="1" parent="1" source="3lNl4ujsSI5lW8CYDao6-7" target="3lNl4ujsSI5lW8CYDao6-26">
          <mxGeometry relative="1" as="geometry" />
        </mxCell>
        <mxCell id="3lNl4ujsSI5lW8CYDao6-7" value="&lt;font style=&quot;font-size: 20px;&quot;&gt;Hoog risico&lt;/font&gt;" style="rounded=1;whiteSpace=wrap;html=1;fillColor=#FFFFFF;strokeColor=#432D57;strokeWidth=2;fontColor=#432D57;" vertex="1" parent="1">
          <mxGeometry x="414" y="590" width="140" height="40" as="geometry" />
        </mxCell>
        <mxCell id="3lNl4ujsSI5lW8CYDao6-11" style="edgeStyle=orthogonalEdgeStyle;rounded=0;orthogonalLoop=1;jettySize=auto;html=1;entryX=0.456;entryY=0.067;entryDx=0;entryDy=0;entryPerimeter=0;strokeColor=#432D57;strokeWidth=2;" edge="1" parent="1" target="3lNl4ujsSI5lW8CYDao6-7">
          <mxGeometry relative="1" as="geometry">
            <mxPoint x="603" y="370" as="sourcePoint" />
            <Array as="points">
              <mxPoint x="603" y="530" />
              <mxPoint x="478" y="530" />
            </Array>
          </mxGeometry>
        </mxCell>
        <mxCell id="3lNl4ujsSI5lW8CYDao6-13" value="&lt;div&gt;&lt;span style=&quot;font-size: 18px; background-color: initial;&quot;&gt;*Exclusief longembolen en CNS trombosen&lt;/span&gt;&lt;br&gt;&lt;/div&gt;&lt;div&gt;&lt;span style=&quot;font-size: 18px;&quot;&gt;&lt;br&gt;&lt;/span&gt;&lt;/div&gt;&lt;div&gt;&lt;span style=&quot;font-size: 18px;&quot;&gt;**Laag risico provoked VTE&lt;/span&gt;&lt;/div&gt;&lt;ul&gt;&lt;li&gt;&lt;font style=&quot;font-size: 18px;&quot;&gt;Geen voorgeschiedenis van VTE &lt;i&gt;&lt;u&gt;en&lt;/u&gt;&lt;/i&gt;&lt;/font&gt;&lt;/li&gt;&lt;li style=&quot;&quot;&gt;&lt;font style=&quot;font-size: 18px;&quot;&gt;VTE is niet ernstig &lt;i&gt;&lt;u&gt;en&lt;/u&gt;&lt;/i&gt;&lt;/font&gt;&lt;/li&gt;&lt;li style=&quot;&quot;&gt;&lt;font style=&quot;font-size: 18px;&quot;&gt;De risicofactor is transient (CVC, chirurgie, trauma,...)&lt;br&gt;en is afwezig na 6 weken &lt;i&gt;&lt;u&gt;en&lt;/u&gt;&lt;/i&gt;&lt;/font&gt;&lt;/li&gt;&lt;li style=&quot;&quot;&gt;&lt;font style=&quot;font-size: 18px;&quot;&gt;De trombus is weg of niet-occlusief na 6 weken&lt;/font&gt;&lt;/li&gt;&lt;/ul&gt;" style="text;html=1;align=left;verticalAlign=middle;resizable=0;points=[];autosize=1;strokeColor=none;fillColor=default;fontColor=#432D57;spacing=0;spacingLeft=6;spacingTop=6;spacingRight=6;" vertex="1" parent="1">
          <mxGeometry x="113.75" y="880" width="490" height="210" as="geometry" />
        </mxCell>
        <mxCell id="3lNl4ujsSI5lW8CYDao6-16" style="edgeStyle=orthogonalEdgeStyle;rounded=0;orthogonalLoop=1;jettySize=auto;html=1;entryX=0.5;entryY=0;entryDx=0;entryDy=0;strokeColor=#432D57;strokeWidth=2;" edge="1" parent="1" source="3lNl4ujsSI5lW8CYDao6-14" target="3lNl4ujsSI5lW8CYDao6-2">
          <mxGeometry relative="1" as="geometry" />
        </mxCell>
        <mxCell id="3lNl4ujsSI5lW8CYDao6-14" value="&lt;font style=&quot;font-size: 20px;&quot;&gt;Start LMWH&lt;/font&gt;" style="rounded=1;whiteSpace=wrap;html=1;fillColor=#FFFFFF;strokeColor=#432D57;strokeWidth=2;align=center;verticalAlign=middle;fontFamily=Helvetica;fontSize=12;fontColor=#432D57;" vertex="1" parent="1">
          <mxGeometry x="320" y="40" width="195" height="40" as="geometry" />
        </mxCell>
        <mxCell id="3lNl4ujsSI5lW8CYDao6-17" value="&lt;ul&gt;&lt;li&gt;&lt;span style=&quot;font-size: 18px;&quot;&gt;CVC&lt;/span&gt;&lt;/li&gt;&lt;li&gt;&lt;span style=&quot;font-size: 18px;&quot;&gt;Immobilisatie&lt;/span&gt;&lt;/li&gt;&lt;li&gt;&lt;span style=&quot;font-size: 18px;&quot;&gt;Maligniteit&lt;/span&gt;&lt;/li&gt;&lt;li&gt;&lt;span style=&quot;font-size: 18px;&quot;&gt;Prematuriteit&lt;/span&gt;&lt;/li&gt;&lt;li&gt;&lt;span style=&quot;font-size: 18px;&quot;&gt;Chirurgie&lt;/span&gt;&lt;/li&gt;&lt;li&gt;&lt;span style=&quot;font-size: 18px;&quot;&gt;Systemtische infectie&lt;/span&gt;&lt;/li&gt;&lt;li&gt;&lt;span style=&quot;font-size: 18px;&quot;&gt;Trauma&lt;/span&gt;&lt;/li&gt;&lt;/ul&gt;" style="text;html=1;align=left;verticalAlign=middle;resizable=0;points=[];autosize=1;strokeColor=none;fillColor=none;fontColor=#432D57;" vertex="1" parent="1">
          <mxGeometry x="520" y="65" width="230" height="190" as="geometry" />
        </mxCell>
        <mxCell id="3lNl4ujsSI5lW8CYDao6-18" value="" style="strokeWidth=2;html=1;shape=mxgraph.flowchart.annotation_2;align=left;labelPosition=right;pointerEvents=1;fontColor=#432D57;strokeColor=#432D57;" vertex="1" parent="1">
          <mxGeometry x="515" y="80" width="50" height="160" as="geometry" />
        </mxCell>
        <mxCell id="3lNl4ujsSI5lW8CYDao6-20" value="Aanwezig" style="text;html=1;align=center;verticalAlign=middle;resizable=0;points=[];autosize=1;strokeColor=none;fillColor=default;fontSize=20;fontColor=#6A9153;" vertex="1" parent="1">
          <mxGeometry x="548" y="270" width="110" height="40" as="geometry" />
        </mxCell>
        <mxCell id="3lNl4ujsSI5lW8CYDao6-22" value="Afwezig" style="text;html=1;align=center;verticalAlign=middle;resizable=0;points=[];autosize=1;strokeColor=none;fillColor=default;fontSize=20;fontColor=#A64C48;" vertex="1" parent="1">
          <mxGeometry x="187" y="270" width="90" height="40" as="geometry" />
        </mxCell>
        <mxCell id="3lNl4ujsSI5lW8CYDao6-25" value="&lt;font style=&quot;font-size: 20px;&quot;&gt;6 weken&amp;nbsp;&lt;/font&gt;&lt;div&gt;&lt;font style=&quot;font-size: 20px;&quot;&gt;antico&lt;/font&gt;&lt;/div&gt;" style="rounded=1;whiteSpace=wrap;html=1;fillColor=#FFFFFF;strokeColor=#432D57;strokeWidth=2;fontColor=#432D57;" vertex="1" parent="1">
          <mxGeometry x="670" y="770" width="140" height="60" as="geometry" />
        </mxCell>
        <mxCell id="3lNl4ujsSI5lW8CYDao6-26" value="&lt;font style=&quot;font-size: 20px;&quot;&gt;3 maanden antico&lt;/font&gt;" style="rounded=1;whiteSpace=wrap;html=1;fillColor=#FFFFFF;strokeColor=#432D57;strokeWidth=2;fontColor=#432D57;" vertex="1" parent="1">
          <mxGeometry x="414" y="770" width="140" height="60" as="geometry" />
        </mxCell>
        <mxCell id="3lNl4ujsSI5lW8CYDao6-31" value="" style="edgeStyle=orthogonalEdgeStyle;rounded=0;orthogonalLoop=1;jettySize=auto;html=1;strokeColor=#432D57;strokeWidth=2;" edge="1" parent="1" source="3lNl4ujsSI5lW8CYDao6-29" target="3lNl4ujsSI5lW8CYDao6-30">
          <mxGeometry relative="1" as="geometry" />
        </mxCell>
        <mxCell id="3lNl4ujsSI5lW8CYDao6-29" value="&lt;font style=&quot;font-size: 20px;&quot;&gt;12 maanden antico + trombofiliescreening&lt;/font&gt;" style="rounded=1;whiteSpace=wrap;html=1;fillColor=#FFFFFF;strokeColor=#432D57;strokeWidth=2;fontColor=#432D57;" vertex="1" parent="1">
          <mxGeometry x="120.5" y="570" width="223" height="70" as="geometry" />
        </mxCell>
        <mxCell id="3lNl4ujsSI5lW8CYDao6-30" value="&lt;font style=&quot;font-size: 20px;&quot;&gt;Levenslang antico bij recidief&lt;/font&gt;" style="rounded=1;whiteSpace=wrap;html=1;fillColor=#FFFFFF;strokeColor=#432D57;strokeWidth=2;fontColor=#432D57;" vertex="1" parent="1">
          <mxGeometry x="113.75" y="770" width="236.5" height="60" as="geometry" />
        </mxCell>
        <mxCell id="3lNl4ujsSI5lW8CYDao6-34" value="&lt;font style=&quot;font-size: 20px;&quot;&gt;Overweeg switch naar DOAC na 5 tot 10 dagen bij kinderen &amp;gt; 1 jaar&lt;/font&gt;" style="rounded=0;whiteSpace=wrap;html=1;fillColor=#FFFFFF;strokeColor=#432D57;strokeWidth=2;fontColor=#432D57;" vertex="1" parent="1">
          <mxGeometry x="140" y="410" width="600" height="70" as="geometry" />
        </mxCell>
      </root>
    </mxGraphModel>
  </diagram>
</mxfile>
